<?xml version="1.0" encoding="utf-8"?>
<!-- Generator: Adobe Illustrator 21.0.2, SVG Export Plug-In . SVG Version: 6.00 Build 0)  -->
<svg version="1.1" id="Layer_1" xmlns="http://www.w3.org/2000/svg" xmlns:xlink="http://www.w3.org/1999/xlink" x="0px" y="0px"
	 viewBox="0 0 775 300" style="enable-background:new 0 0 775 300;" xml:space="preserve">
<style type="text/css">
	.st0{fill:#00567D;}
</style>
<title>ieee-comsoc</title>
<path class="st0" d="M51.8,276.1l-0.3,0.2l-8.6,0.1l-0.2-0.3l1.6-6.6l2.5-10.4c1.7-7.5,2.2-9.8,3.6-16.8l0.3-0.3l8.6-0.2l0.2,0.3
	c-2.1,8.4-2.6,10.3-4.6,19.2l-1.5,6.8L51.8,276.1L51.8,276.1z"/>
<path class="st0" d="M81.1,276.1l-0.3,0.3H68.2l-9.1,0.2l-0.2-0.3l2.4-9.8l1.9-7.8c1.8-8,2.1-9.5,3.4-16.3l0.3-0.3h12.7l8.2-0.2
	l0.3,0.3l-1.6,5.5l-0.3,0.3H73.8l-1.8,7.8h5.4l6.5-0.2l0.2,0.4l-1.6,5.2l-0.4,0.2H70.7l-0.7,3.1l-1.2,5.4h5.8l7.9-0.2l0.2,0.3
	L81.1,276.1L81.1,276.1z"/>
<path class="st0" d="M109.4,276.1l-0.3,0.3H96.5l-9.1,0.2l-0.2-0.3l2.4-9.8l1.9-7.8c1.8-8,2.1-9.5,3.4-16.3l0.3-0.3h12.7l8.2-0.2
	l0.3,0.3l-1.6,5.5l-0.3,0.3h-12.3l-1.8,7.8h5.4l6.5-0.2l0.2,0.4l-1.6,5.2l-0.4,0.2H99l-0.7,3.1L97,270h5.8l7.9-0.2l0.2,0.3
	L109.4,276.1L109.4,276.1z"/>
<path class="st0" d="M137.6,276.1l-0.3,0.3h-12.5l-9.1,0.2l-0.2-0.3l2.4-9.8l1.9-7.8c1.8-8,2.1-9.5,3.4-16.3l0.3-0.3h12.7l8.2-0.2
	l0.3,0.3l-1.6,5.5l-0.3,0.3h-12.3l-1.8,7.8h5.4l6.5-0.2l0.2,0.4l-1.6,5.2l-0.4,0.2h-11.3l-0.7,3.1l-1.2,5.4h5.8l7.9-0.2l0.2,0.3
	L137.6,276.1L137.6,276.1z"/>
<path class="st0" d="M182.9,275l-0.3,0.4c-0.5,0.2-0.9,0.5-1.5,0.6c-1.2,0.5-3.8,1.1-6.7,1.1c-3.8,0-8.5-0.9-11.8-4.6
	c-2.4-2.7-3.3-6.4-3.3-10.3c0-10.4,6.7-20.9,19.5-20.9c1.5,0,2.9,0.1,4.5,0.5c2.8,0.5,4,1.2,5.5,2.1l0.2,0.4l-1.9,6.3l-0.3,0.1
	c-0.5-0.4-0.8-0.8-1.3-1.1c-1.3-0.9-3.4-1.5-5.6-1.5c-8.2,0-11.8,8.2-11.8,13.8c0,5.4,3.1,8.8,8.5,8.8c1.1,0,2.2-0.2,3.3-0.5
	c1.9-0.5,2.9-1.2,4.3-2.2l0.4,0.2L182.9,275L182.9,275z"/>
<path class="st0" d="M209.4,273.9c-2.8,2.3-5.9,3-9.6,3c-2.5,0-5.9-0.5-8.2-2.5c-2.1-1.9-3.2-4.5-3.2-8.2c0-4.5,2.4-16.2,15-16.2
	c3,0,6.2,0.7,8.5,2.7c2.5,2.3,3,5,3,7.8c0,1.6-0.2,3.3-0.6,4.9C213.5,268.7,212,271.8,209.4,273.9L209.4,273.9z M206.8,259.6
	c0-1.8-0.6-4.3-3.4-4.3c-2.3,0-3.4,1.4-4,2c-1.9,2.4-2.9,7.9-2.9,10.2c0,1.2,0.2,1.8,0.3,2.1c0.5,1.6,1.9,2.3,3.4,2.3
	c1.5,0,2.7-0.8,3.6-1.9c0.5-0.7,1.6-1.9,2.5-6.3C206.5,262.5,206.8,261,206.8,259.6L206.8,259.6z"/>
<path class="st0" d="M254.2,276.1l-0.3,0.2l-7.9,0.2l-0.3-0.3l2-8.5l0.8-3.5c0.2-1.1,1-4.5,1-5.3c0-1.2-0.6-2.7-2.5-2.7
	c-1.8,0-3.1,1-4,1.6c-0.3,2.4-0.4,2.9-0.9,5.5l-1.1,4.7l-1.6,8l-0.3,0.2l-7.8,0.2l-0.2-0.3l1.9-8.1l0.7-3.3c0.8-4.2,1-5.1,1-5.9
	c0-2.5-1.8-2.7-2.4-2.7c-1.4,0-2.6,0.7-3.6,1.6l-1.6,7.3l-2.3,11l-0.3,0.2l-8,0.2l-0.2-0.3l2-8.3l1.2-5.2c1.1-5.2,1.2-6.2,2-11
	l0.3-0.3c3.4-0.5,4.4-0.6,8.2-1.4l0.3,0.3l-0.6,2.9c0.7-0.6,1.5-1.1,2.3-1.6c1.6-0.9,3.8-1.6,5.6-1.6c2.6,0,4.3,1.1,5.2,3.4
	c2.5-1.9,5.5-3.4,8.7-3.4c2.3,0,6.7,1,6.7,6.3c0,1.5-0.4,3.2-0.8,4.7l-1,4.6L254.2,276.1L254.2,276.1z"/>
<path class="st0" d="M297.7,276.1l-0.3,0.2l-7.9,0.2l-0.3-0.3l2-8.5l0.8-3.5c0.2-1.1,1-4.5,1-5.3c0-1.2-0.6-2.7-2.5-2.7
	c-1.8,0-3.1,1-4,1.6c-0.3,2.4-0.4,2.9-0.9,5.5l-1.1,4.7l-1.6,8l-0.3,0.2l-7.8,0.2l-0.2-0.3l1.9-8.1l0.7-3.3c0.8-4.2,1-5.1,1-5.9
	c0-2.5-1.8-2.7-2.4-2.7c-1.4,0-2.6,0.7-3.6,1.6l-1.6,7.3l-2.3,11l-0.3,0.2l-8,0.2l-0.2-0.3l2-8.3l1.2-5.2c1.1-5.2,1.2-6.2,2-11
	l0.3-0.3c3.4-0.5,4.4-0.6,8.2-1.4l0.3,0.3l-0.6,2.9c0.7-0.6,1.5-1.1,2.3-1.6c1.6-0.9,3.8-1.6,5.6-1.6c2.6,0,4.3,1.1,5.2,3.4
	c2.5-1.9,5.5-3.4,8.7-3.4c2.3,0,6.7,1,6.7,6.3c0,1.5-0.4,3.2-0.8,4.7l-1,4.6L297.7,276.1L297.7,276.1z"/>
<path class="st0" d="M326.9,276.1l-0.3,0.3l-7.6,0.2l-0.2-0.3l0.6-2.4c-2.2,2.1-5.1,3.2-7.7,3.2c-2.8,0-6.7-1.3-6.7-6.5
	c0-2.3,0.6-4.6,1.2-6.8l1.1-4.8c0.8-3.4,1-4.3,1.6-7.5l0.3-0.3l7.7-0.4l0.2,0.4c-0.5,1.9-0.9,3.7-1.4,5.6c-0.3,1.6-0.7,3.1-1.1,4.7
	c-0.5,1.8-1.2,5.2-1.2,6.8c0,1.8,1.2,2.8,2.7,2.8c1.9,0,3.3-1,4.3-1.7l2-9.5l1.7-8.5l0.4-0.3l7.8-0.4l0.2,0.4l-3,12.9l-1.1,4.9
	L326.9,276.1L326.9,276.1z"/>
<path class="st0" d="M356.3,276.1l-0.3,0.2l-7.9,0.1l-0.2-0.3l1.9-8.2l1.1-5c0.2-1,0.6-2.9,0.6-4c0-1.8-1.2-2.7-2.6-2.7
	c-1.5,0-2.7,0.7-3.9,1.5c-1.9,8.5-2.4,11.1-3.8,18.3l-0.3,0.3l-8,0.2l-0.2-0.3l2-8.4l0.8-3.3c1.3-6,1.6-7.5,2.3-12.8l0.4-0.4
	c3.7-0.5,4.3-0.6,8.1-1.4l0.3,0.3l-0.6,2.7c1.7-1.2,4-2.9,7.6-2.9c3,0,6.5,1.5,6.5,6.4c0,2.2-1,6.8-1.9,10.2l-0.6,3.3L356.3,276.1
	L356.3,276.1z"/>
<path class="st0" d="M372.3,267.6c-0.8,4.1-1,5.1-1.6,8.5l-0.3,0.2l-8.4,0.2l-0.2-0.3c1.5-5.7,1.8-6.8,3.2-13l0.5-2.4
	c0.9-4.2,1.1-5.2,1.6-9.1l0.3-0.3c4.1-0.5,5-0.7,8.5-1.4l0.3,0.3c-1.2,4.7-1.6,6.5-3.2,13.7L372.3,267.6L372.3,267.6z M377.1,245.4
	l-0.3,0.4l-8,1.1l-0.3-0.3l1.4-6.5l0.5-0.3l8-1.1l0.3,0.3L377.1,245.4L377.1,245.4z"/>
<path class="st0" d="M397.2,269.5l-1.6,5.9l-0.3,0.3c-0.5,0.2-0.9,0.4-1.4,0.5c-1.1,0.4-3,0.7-4.9,0.7c-6.9,0-11.4-4.2-11.4-11.6
	c0-6.8,4.6-15.3,15.1-15.3c1.2,0,2.5,0.2,3.7,0.4c1.9,0.4,2.7,0.9,3.8,1.6l0.1,0.3l-1.6,5.5l-0.5,0.2c-0.3-0.4-0.6-0.7-0.8-1
	c-1-0.8-2.6-1.3-4-1.3c-4.6,0-7.5,4.7-7.5,9.1c0,4.7,3,6.3,5.5,6.3c2.8,0,4.4-1.3,5.2-1.9L397.2,269.5L397.2,269.5z"/>
<path class="st0" d="M426.3,260.3c-1.9,7.8-2.2,9.6-3.2,15.8l-0.3,0.2l-7.3,0.2l-0.2-0.3l0.3-2.1c-0.8,0.7-1.3,1.2-2.5,1.7
	c-1.5,0.7-3,1.1-4.6,1.1c-2.8,0-5.3-1.3-6.7-3.7c-0.8-1.4-1.3-3.4-1.3-5.7c0-4.5,1.9-9.5,5.3-12.6c4.6-4.2,9.9-4.2,14.2-4.3h8.2
	l0.3,0.4L426.3,260.3L426.3,260.3z M419.4,256c-1.2-0.1-2.5-0.1-3.7,0.2c-5.2,1.4-6.8,7.5-6.8,10.4c0,4.2,2.5,4.8,3.7,4.8
	c1.8,0,2.8-0.8,3.7-1.6L419.4,256L419.4,256z"/>
<path class="st0" d="M442.5,276l-0.4,0.4c-1.5,0.3-2.7,0.5-4.3,0.5c-4.2,0-7.3-1.3-7.3-5.7c0-2,0.9-5.7,1.6-8.4l1.6-6.7l-3.4,0.1
	l-0.3-0.4l1.4-4.9l0.3-0.2h3.2l1.4-6.3l0.3-0.3c3.7-0.8,4.6-1.1,8-2l0.3,0.3l-1.1,4l-1.1,4.4l5-0.1l0.2,0.3c-0.7,2-0.9,2.6-1.5,4.9
	l-0.4,0.3l-4.5-0.1l-2,8.5c-0.3,1.1-0.9,3.8-0.9,4.6c0,1.6,1.2,2,2.3,2c1.2,0,1.9-0.3,2.8-0.6l0.3,0.2L442.5,276L442.5,276z"/>
<path class="st0" d="M456.2,267.6c-0.9,4.1-1,5.1-1.6,8.5l-0.3,0.2l-8.4,0.2l-0.2-0.3c1.5-5.7,1.8-6.8,3.2-13l0.5-2.4
	c0.9-4.2,1.1-5.2,1.6-9.1l0.3-0.3c4.1-0.5,5-0.7,8.5-1.4l0.3,0.3c-1.2,4.7-1.6,6.5-3.2,13.7L456.2,267.6L456.2,267.6z M461,245.4
	l-0.3,0.4l-8,1.1l-0.3-0.3l1.4-6.5l0.5-0.3l8-1.1l0.3,0.3L461,245.4L461,245.4z"/>
<path class="st0" d="M482.3,273.9c-2.8,2.3-5.9,3-9.6,3c-2.5,0-5.9-0.5-8.2-2.5c-2.1-1.9-3.2-4.5-3.2-8.2c0-4.5,2.4-16.2,15-16.2
	c3,0,6.2,0.7,8.5,2.7c2.5,2.3,3,5,3,7.8c0,1.6-0.2,3.3-0.6,4.9C486.5,268.7,484.9,271.8,482.3,273.9L482.3,273.9z M479.8,259.6
	c0-1.8-0.6-4.3-3.4-4.3c-2.3,0-3.4,1.4-4,2c-1.9,2.4-2.9,7.9-2.9,10.2c0,1.2,0.2,1.8,0.3,2.1c0.5,1.6,1.9,2.3,3.4,2.3
	c1.5,0,2.7-0.8,3.6-1.9c0.5-0.7,1.6-1.9,2.5-6.3C479.5,262.5,479.8,261,479.8,259.6L479.8,259.6z"/>
<path class="st0" d="M513,276.1l-0.3,0.2l-7.9,0.1l-0.2-0.3l1.9-8.2l1.1-5c0.2-1,0.6-2.9,0.6-4c0-1.8-1.2-2.7-2.7-2.7
	c-1.5,0-2.7,0.7-3.9,1.5c-1.9,8.5-2.4,11.1-3.8,18.3l-0.3,0.3l-8,0.2l-0.2-0.3l2-8.4l0.8-3.3c1.3-6,1.6-7.5,2.3-12.8l0.4-0.4
	c3.7-0.5,4.3-0.6,8.1-1.4l0.3,0.3l-0.6,2.7c1.7-1.2,4-2.9,7.6-2.9c3,0,6.5,1.5,6.5,6.4c0,2.2-1,6.8-1.9,10.2l-0.6,3.3L513,276.1
	L513,276.1z"/>
<path class="st0" d="M518.3,274.1l1.5-5.2l0.5-0.2c0.9,1,3,3.2,6.8,3.2c3.7,0,4.2-2.1,4.2-2.8c0-1.6-1.6-2.4-3.3-3.2l-1.1-0.5
	c-2.6-1.3-5.1-2.8-5.1-6.7c0-1.2,0.5-8.8,11.1-8.8c2.7,0,5.4,0.5,8.2,1.9l0.2,0.5c-0.8,2.5-0.9,2.9-1.5,5.2l-0.5,0.1
	c-0.5-0.5-0.9-1-1.5-1.4c-1.2-0.9-3-1.4-4.3-1.4c-2.7,0-3.7,1.3-3.7,2.5c0,1.5,1.7,2.3,3,2.9l1.1,0.5c2.1,1.1,5.6,2.8,5.6,7.1
	c0,2.3-1.2,9.2-11.9,9.2c-5,0-7.6-1.5-9.1-2.4L518.3,274.1L518.3,274.1z"/>
<path class="st0" d="M556.5,273.8l1.6-6.1l0.5-0.2c0.6,0.7,1.1,1.2,2.3,1.9c2.4,1.4,4.7,1.6,5.6,1.6c3.5,0,6.2-1.8,6.2-4.4
	c0-2.4-2.1-3.6-4.5-4.8l-1.6-0.8c-2.5-1.5-6.1-3.5-6.1-8.5c0-2,0.6-4.7,2.6-7c2.6-3,6.6-4.1,10.7-4.1c5.2,0,8.6,1.9,10,2.7l0.2,0.3
	l-1.8,6.1l-0.5,0.2c-0.6-0.7-0.9-1-1.6-1.5c-1.6-1.1-3.6-1.8-5.6-1.8c-3.1,0-5.1,1.7-5.1,4c0,2.1,1.6,3.1,4.6,4.7l1.2,0.6
	c2.5,1.5,6.5,3.7,6.5,8.9c0,5.8-4.3,11.7-14.4,11.7c-2.5,0-4.9-0.4-7.2-1.2c-1.6-0.5-2.4-1-3.3-1.6L556.5,273.8L556.5,273.8z"/>
<path class="st0" d="M605.6,273.9c-2.8,2.3-5.9,3-9.6,3c-2.5,0-5.9-0.5-8.2-2.5c-2.1-1.9-3.2-4.5-3.2-8.2c0-4.5,2.4-16.2,15-16.2
	c3,0,6.2,0.7,8.5,2.7c2.5,2.3,3,5,3,7.8c0,1.6-0.2,3.3-0.6,4.9C609.8,268.7,608.2,271.8,605.6,273.9L605.6,273.9z M603,259.6
	c0-1.8-0.6-4.3-3.4-4.3c-2.3,0-3.4,1.4-4,2c-1.9,2.4-2.9,7.9-2.9,10.2c0,1.2,0.2,1.8,0.3,2.1c0.5,1.6,1.9,2.3,3.4,2.3
	c1.5,0,2.7-0.8,3.6-1.9c0.5-0.7,1.6-1.9,2.5-6.3C602.8,262.5,603,261,603,259.6L603,259.6z"/>
<path class="st0" d="M633.7,269.5l-1.5,5.9l-0.3,0.3c-0.5,0.2-0.9,0.4-1.4,0.5c-1.1,0.4-3,0.7-4.9,0.7c-6.9,0-11.4-4.2-11.4-11.6
	c0-6.8,4.6-15.3,15.1-15.3c1.2,0,2.5,0.2,3.7,0.4c2,0.4,2.7,0.9,3.8,1.6l0.1,0.3l-1.6,5.5l-0.5,0.2c-0.3-0.4-0.6-0.7-0.9-1
	c-1-0.8-2.6-1.3-4-1.3c-4.6,0-7.5,4.7-7.5,9.1c0,4.7,3,6.3,5.5,6.3c2.8,0,4.4-1.3,5.2-1.9L633.7,269.5L633.7,269.5z"/>
<path class="st0" d="M646.2,267.6c-0.9,4.1-1,5.1-1.6,8.5l-0.3,0.2l-8.4,0.2l-0.2-0.3c1.5-5.7,1.8-6.8,3.2-13l0.5-2.4
	c0.9-4.2,1.1-5.2,1.6-9.1l0.3-0.3c4.1-0.5,5-0.7,8.5-1.4l0.3,0.3c-1.2,4.7-1.6,6.5-3.2,13.7L646.2,267.6L646.2,267.6z M651,245.4
	l-0.3,0.4l-8,1.1l-0.3-0.3l1.4-6.5l0.5-0.3l8-1.1l0.3,0.3L651,245.4L651,245.4z"/>
<path class="st0" d="M673.8,268.8c-0.3,1.1-0.6,2.1-0.9,3.2c-0.3,1-0.5,2-0.7,2.9l-0.2,0.3c-1.2,0.6-3.5,1.8-8.3,1.8
	c-6.8,0-9-2.6-9.9-3.7c-1.8-2.2-2.3-4.6-2.3-7.2c0-7.1,4.4-16,14.6-16c2.3,0,4.5,0.5,6.1,1.4c3.6,2,3.8,5.6,3.8,7.6
	c0,2.3-0.5,4.1-0.8,5.7l-0.4,0.2c-7.1-0.1-9.2,0-15.4,0.1c-0.1,0.5-0.1,1-0.1,1.6c0,2.9,1.9,4.5,5.9,4.5c2.9,0,5.8-1.1,8.2-2.8
	L673.8,268.8L673.8,268.8z M668.8,260.3c0.2-0.7,0.3-1.5,0.3-2.2c0-1.6-1-3.2-3.3-3.2c-0.8,0-2.1,0.2-3.4,1.5
	c-1.4,1.2-1.9,2.8-2.3,4L668.8,260.3L668.8,260.3z"/>
<path class="st0" d="M691.2,276l-0.4,0.4c-1.6,0.3-2.7,0.5-4.3,0.5c-4.2,0-7.3-1.3-7.3-5.7c0-2,0.9-5.7,1.6-8.4l1.6-6.7l-3.4,0.1
	l-0.3-0.4l1.4-4.9l0.3-0.2h3.2l1.4-6.3l0.3-0.3c3.7-0.8,4.6-1.1,8-2l0.3,0.3l-1.1,4l-1.1,4.4l5-0.1l0.2,0.3c-0.7,2-0.9,2.6-1.5,4.9
	l-0.4,0.3l-4.5-0.1l-2,8.5c-0.3,1.1-0.9,3.8-0.9,4.6c0,1.6,1.2,2,2.3,2c1.2,0,2-0.3,2.8-0.6l0.3,0.2L691.2,276L691.2,276z"/>
<path class="st0" d="M722.2,250.9c-1.2,1.9-1.4,2.2-3,5c-1.5,2.7-4,6.8-5.4,9.3l-4.1,7.2c-3.1,5.4-3.5,6.3-8.2,15.6l-0.5,0.3
	l-7.4,0.1l-0.2-0.3c2.9-4.5,7.1-10.8,7.1-11.2l-1-7.6l-1.1-8.5c-0.6-4.7-0.8-6-1.4-9.8l0.3-0.4c3.6-0.1,4.6-0.1,8.1-0.3l0.3,0.3
	l0.4,6.5l0.7,9.7l3.7-7.1c2.4-4.9,2.7-5.4,4.3-8.9l0.4-0.3l6.8-0.2L722.2,250.9L722.2,250.9z"/>
<path class="st0" d="M110.2,184.3c-16.1,0-35.9-9.8-35.6-40.6C75,99.6,102.1,81,128.2,83c-10.6-4.9-29.1-8.5-49.3-6.6
	c-26.6,2.5-47.2,14.6-56.2,36c-5.4,12.8-6.7,23.2-6.7,34.3c0,47.6,33.6,75,78.4,75c11.7,0,24.3-1.9,31.5-4.4c3.2-1,9.1-3.4,9.1-3.4
	s1.4-0.7,1.9-2.2c0.5-1,9.8-37.7,10.1-38.4s-1.9-2.6-3.2-1.6C142.7,172.6,128.2,184.3,110.2,184.3L110.2,184.3z"/>
<path class="st0" d="M167.3,59c-1.1-0.7-12.3-7.9-24.9-10.4c-8.2-1.6-16.1-2.5-24.3-2.5c-28.3,0-50.1,9.7-65.7,24
	c3.2-1.1,6.5-2,9.9-2.8c30.7-6.8,61.3,2.3,83,21.8c1.1,0.7,6.5,6.1,8.2,8.4c0.1,0.2-0.1,0,0.5,0.5c0.5,0.5,2.8-0.1,3.1-0.9
	c0.2-0.8,10.6-35.6,10.7-36S168.1,59.6,167.3,59L167.3,59z"/>
<path class="st0" d="M398.3,214.8l-1.2,1.1l-35.1,0.7l-0.9-1.2l7.2-30.5l2.8-12.3c3-13.6,3.3-16.2,3.3-18.3c0-6.5-4.2-7.9-7.1-7.9
	c-4.1,0-6.9,1.9-9.3,3.5l-3.2,18.2l-3.5,16l-6.3,30.8l-1.2,1.1l-34.7,0.7l-0.9-1.2l6.7-28.7l2.8-12.1c0.9-4.7,1.9-9.3,2.8-14.1
	c0.3-1.8,0.9-4.4,0.9-6.7c0-7.2-5.6-7.4-6.7-7.4c-4.4,0-6.9,1.9-8.8,3.5l-6,26.8l-8,38.2l-1.2,1.1l-35.3,0.7l-0.9-1.2l7.2-29.6
	l4.9-20.1c4.1-18.9,4.7-23.1,7.1-39.7l1.2-1.2c16.8-2.3,20.1-3,36.1-6l1.1,1.2l-2.5,11.5c2.7-2.3,5.3-4.4,8.3-6
	c3.2-1.9,11.6-6,20.1-6c6.2,0,15.1,1.8,18.9,12.5c6-4.4,16.9-12.5,30.5-12.5c11.6,0,25,5.6,25,23.1c0,5.3-1.2,11-2.7,16.4l-4.2,18.9
	L398.3,214.8L398.3,214.8z"/>
<path class="st0" d="M410.9,203.6l9.3-33.9l2.5-0.7c2.9,3.4,4.8,5.2,9.3,8.2c10,6.2,20.7,7.5,27,7.5c18.4,0,23.7-9.8,23.7-15.7
	c0-8.4-7.5-12.5-18.2-18.6l-7.5-4.3c-11.8-6.8-28.5-16.8-28.5-40.5c0-18.6,9.1-30.9,12.9-35.1c13.9-15.5,33.6-19.3,50.3-19.3
	c25,0,41.2,8.2,49.6,12.3l1.1,1.6L533,99.3l-2.3,0.7c-2.7-2.7-5.5-5.2-8.4-7.3c-8.4-5.9-19.4-8.2-25.2-8.2
	c-11.1,0-18.4,6.2-18.4,13.9c0,6.8,5,11.6,19.5,19.3l4.6,2.5c10.7,5.9,30.9,17.3,30.9,41.8c0,32.5-25.5,56.6-69.6,56.6
	c-12.1,0-24.1-1.6-36-5.2c-7.7-2.5-11.1-4.3-16.6-7.5L410.9,203.6L410.9,203.6z"/>
<path class="st0" d="M627,196.4c-13.7,21.3-37.4,21.8-45.4,21.8c-26.3,0-42.3-13-42.3-39.3c0-14.1,5.1-31.2,14.6-42.6
	c12.5-14.6,29.1-16.8,40.7-16.8c12,0,20.9,2.8,25,5.1c17.4,9.1,17.4,29.2,17.4,33.5c0,6.3-0.5,12.5-1.9,18.5
	C633.2,184.4,630,191.8,627,196.4L627,196.4z M601.9,152.9c0-6.9-2.8-11.3-8.3-11.3c-6.9,0-10.4,7.4-11.3,9
	c-4.4,8.5-7.6,26.1-7.6,33.3c0,3,0,12.1,8.3,12.1c9.1,0,14.1-12.4,16.9-27C601.7,160.7,601.9,153.8,601.9,152.9L601.9,152.9z"/>
<path class="st0" d="M718.1,187.8c-3.5,12.7-3.8,15-6.2,25.2l-1.4,1.2c-6.5,2.1-12.7,3.9-21.7,3.9c-29.6,0-44-17.6-44-43.4
	c0-26.3,18.3-55.2,55.9-55.2c16.4,0,23.6,4.6,28,7.2l0.3,1.4l-6.9,23.8l-1.8,0.2c-4.2-5.3-9-8.3-15.7-8.3c-12,0-23.3,11.1-23.3,29.8
	c0,9.9,4.7,19.6,18,19.6c8.5,0,13.4-3.5,16.9-6.2L718.1,187.8L718.1,187.8z"/>
<path class="st0" d="M244.8,196.4c-13.8,21.3-37.4,21.8-45.5,21.8c-26.3,0-42.3-13-42.3-39.3c0-14.1,5.1-31.2,14.6-42.6
	c12.5-14.6,29.1-16.8,40.7-16.8c12,0,20.9,2.8,25,5.1c17.4,9.1,17.4,29.2,17.4,33.5c0,6.3-0.5,12.5-1.9,18.5
	C251,184.4,247.8,191.8,244.8,196.4L244.8,196.4z M219.7,152.9c0-6.9-2.8-11.3-8.3-11.3c-6.9,0-10.4,7.4-11.3,9
	c-4.4,8.5-7.6,26.1-7.6,33.3c0,3,0,12.1,8.3,12.1c9.2,0,14.1-12.4,16.9-27C219.5,160.7,219.7,153.8,219.7,152.9L219.7,152.9z"/>
<path class="st0" d="M207.9,15.6c-0.3,16.9-0.6,33.8-0.6,50.6c0,17.7,0.2,23.4,0.8,34.6l-0.7,0.7c-10.2,0-12.6,0-21.8,0.3l-0.6-0.7
	c0.5-12.7,0.7-20.2,0.7-34.6c0-31.2-0.4-37.4-1.1-50.6l0.5-0.7c8.8,0.1,11.6,0.1,22.1-0.3L207.9,15.6L207.9,15.6z"/>
<path class="st0" d="M277.4,85.9l-0.8,14.9l-1,0.7h-53.8l-0.6-0.5c0.3-12.9,0.6-20.5,0.6-36c0-32.8-0.2-37.3-1-49.2l0.7-0.7h53.7
	l0.6,0.5L275,29.9l-0.6,0.7c-14.8-0.3-17.6-0.3-31.4-0.3v19.4l29.6-0.5l0.6,0.7l-0.7,13.8l-0.8,0.7h-28.6l0.2,21.4
	c15.6,0,19.1-0.1,33.5-0.8L277.4,85.9L277.4,85.9z"/>
<path class="st0" d="M343.8,85.9l-0.8,14.9l-1,0.7h-53.8l-0.6-0.5c0.4-12.9,0.6-20.5,0.6-36c0-32.8-0.2-37.3-1-49.2l0.7-0.7h53.7
	l0.6,0.5l-0.9,14.2l-0.6,0.7c-14.8-0.3-17.6-0.3-31.4-0.3v19.4l29.6-0.5l0.6,0.7l-0.7,13.8l-0.8,0.7h-28.6l0.2,21.4
	c15.6,0,19.1-0.1,33.5-0.8L343.8,85.9L343.8,85.9z"/>
<path class="st0" d="M410,85.9l-0.8,14.9l-1,0.7h-53.9l-0.6-0.5c0.3-12.9,0.6-20.5,0.6-36c0-32.8-0.2-37.3-1-49.2l0.7-0.7h53.7
	l0.6,0.5l-0.8,14.2l-0.6,0.7c-14.8-0.3-17.6-0.3-31.4-0.3v19.4l29.6-0.5l0.6,0.7L405,63.8l-0.8,0.7h-28.6l0.2,21.4
	c15.6,0,19.1-0.1,33.5-0.8L410,85.9L410,85.9z"/>
<g>
	<path class="st0" d="M745.7,144.9c-4.6,0-8.9-3.6-8.9-8.9c0-5.2,4.1-9,8.9-9c5.2,0,9,4.1,9,9C754.7,141,750.8,144.9,745.7,144.9z
		 M745.8,127.8c-4.6,0-8.2,3.7-8.2,8.2c0,4.5,3.7,8.1,8.1,8.1c4.6,0,8.1-3.6,8.1-8.1C753.9,131.6,750.4,127.8,745.8,127.8z
		 M745.6,130.3c1.2,0,1.9,0,2.6,0.3c1.2,0.4,1.8,1.5,1.8,2.6c0,1.4-0.9,2.3-2.3,2.7c0.9,0.4,1.4,0.8,1.6,2.4
		c0.3,1.7,0.4,2.3,0.9,3.3h-2.3c-0.1-0.2-0.3-0.6-0.5-1.6c0-0.3-0.2-1.5-0.3-1.7c-0.3-1.6-1.1-1.7-2.5-1.8H744v5h-2v-11.3H745.6z
		 M744,134.9h1.7c0.8,0,2.4,0,2.4-1.6c0-0.4-0.2-1-0.8-1.3c-0.4-0.2-0.7-0.2-2-0.2H744V134.9z"/>
</g>
</svg>
